<?xml version="1.0" encoding="UTF-8"?>
<svg id="Warstwa_1" width="150px"  data-name="Warstwa 1" xmlns="http://www.w3.org/2000/svg" xmlns:xlink="http://www.w3.org/1999/xlink" viewBox="0 0 108 108">
  <defs>
    <style>
      .cls-1 {
        fill: #fff;
      }

      .cls-2 {
        fill: #fffffe;
      }

      .cls-2, .cls-3, .cls-4, .cls-5, .cls-6, .cls-7, .cls-8, .cls-9, .cls-10, .cls-11, .cls-12 {
        fill-rule: evenodd;
      }

      .cls-3 {
        fill: #150e18;
      }

      .cls-4 {
        fill: #ffb497;
      }

      .cls-5 {
        fill: #df4f4b;
      }

      .cls-6 {
        fill: #ffac88;
      }

      .cls-7 {
        fill: #ff9a7b;
      }

      .cls-8 {
        fill: #6c6ce5;
      }

      .cls-9 {
        fill: #4f4b67;
      }

      .cls-13 {
        fill: #7ed0ec;
      }

      .cls-10 {
        fill: #302c3f;
      }

      .cls-11 {
        fill: #f0ac8a;
      }

      .cls-12 {
        fill: #ff8c69;
      }

      .cls-14 {
        mask: url(#mask);
      }
    </style>
    <mask id="mask" x="0" y="0" width="108" height="108" maskUnits="userSpaceOnUse">
      <g id="mask-2">
        <circle id="path-1-2" data-name="path-1" class="cls-1" cx="54" cy="54" r="54"/>
      </g>
    </mask>
  </defs>
  <g id="Personal-1-mixed">
    <g id="hero">
      <g id="bio">
        <g id="avatar">
          <g id="Oval">
            <circle id="path-1" class="cls-13" cx="54" cy="54" r="54"/>
          </g>
          <g class="cls-14">
            <g>
              <path id="Fill-31" class="cls-8" d="m75.64,97.75c-11.78-4.9-15.66-10.99-14.66-19.75h-12.96c1.01,8.76-2.87,14.85-14.66,19.75-11.78,4.9-13.36,10.25-13.36,10.25h69s-1.58-5.35-13.36-10.25"/>
              <path id="Fill-32" class="cls-2" d="m55,100c4.9,0,9.24-3.17,11-7.95-.36-.34-.69-.7-1-1.05h0c-1.38,4.44-5.33,7.64-10,7.64s-8.62-3.21-10-7.64h0c-.31.36-.65.71-1,1.05,1.76,4.78,6.1,7.95,11,7.95"/>
              <path id="Fill-33" class="cls-12" d="m65,90.52c-3.14-3.5-4.15-7.58-3.58-12.52h-12.85c.57,4.94-.44,9.03-3.58,12.52,1.38,4.34,5.33,7.48,10,7.48s8.62-3.14,10-7.48"/>
              <path id="Fill-34" class="cls-7" d="m65,90.62c-3.13-3.52-4.13-7.64-3.57-12.62h-12.86c.57,4.99-.44,9.11-3.58,12.64l.04.11c2.68.81,5.85,1.25,9.63,1.25,4.12,0,7.52-.49,10.34-1.38"/>
              <path id="Fill-35" class="cls-10" d="m30.81,68s-1.09-14.32,12.04-19.32c13.13-5,20.79-8.81,21.34-18.71,0,0,4.1,8.63,0,14.47,0,0,4.93.25,5.75-3.05,0,0,1.92,5.44,1.09,7.29,0,0,2.46-.18,2.74-3.73l1.64,18.78,1.09,4.27,4.01-13.29s10.5-24.74-11.69-31.21c0,0-18.63-16.12-38.04,2.41,0,0-15.66,12.45-5.18,31.98l5.2,10.11"/>
              <path id="Fill-36" class="cls-9" d="m31.13,25.79s-6.14,4.84-8.13,13.21c2.02-3.34,8.92-13.56,19.72-16.76,12.99-3.86,26.28,1.18,26.28,1.18,0,0-18.55-15.91-37.87,2.37"/>
              <path id="Fill-37" class="cls-9" d="m82.85,45h0c.77-7.47-.96-17.31-13.85-21,0,0,14.24,8.8,13.85,21"/>
              <path id="Fill-38" class="cls-4" d="m35.68,60.55c2.43,4.59,1.41,9.85-2.28,11.76-3.69,1.9-8.65-.28-11.08-4.87-2.43-4.59-1.41-9.85,2.28-11.76,3.69-1.9,8.65.27,11.08,4.86"/>
              <path id="Fill-39" class="cls-5" d="m34,69c-.01-.19-.05-.35-.07-.53.03.13.05.24.06.32-.02-.93-.17-1.69-.41-2.29-1.98-7.73-9.57-8.51-9.57-8.51,3.84,2.21,6.24,4.65,7.73,6.67-2.73-1.06-6.95,1.18-6.95,1.18,5-1.26,7.28-.22,8.33,1,.69,1.31.89,2.15.89,2.15"/>
              <path id="Fill-40" class="cls-10" d="m32.3,71s-5.66-15.97.78-25l3.92,11.85-4.7,13.15"/>
              <path id="Fill-41" class="cls-4" d="m72.32,60.55c-2.43,4.59-1.41,9.85,2.28,11.76,3.69,1.9,8.65-.28,11.08-4.87,2.43-4.59,1.41-9.85-2.28-11.76-3.69-1.9-8.65.27-11.08,4.86"/>
              <path id="Fill-42" class="cls-5" d="m74,69c.01-.19.05-.35.07-.53-.03.13-.05.24-.06.32.02-.93.17-1.69.41-2.29,1.98-7.73,9.57-8.51,9.57-8.51-3.84,2.21-6.24,4.65-7.73,6.67,2.73-1.06,6.95,1.18,6.95,1.18-5-1.26-7.28-.22-8.33,1-.69,1.31-.89,2.15-.89,2.15"/>
              <path id="Fill-43" class="cls-10" d="m74.8,73s7.04-4.3,2.88-24l-8.69,2.76,5.8,21.24"/>
              <path id="Fill-44" class="cls-4" d="m75.36,64.13l-1.63-18.99c-.27,3.59-2.72,3.78-2.72,3.78.82-1.87-1.09-7.37-1.09-7.37-.82,3.34-5.72,3.08-5.72,3.08,4.08-5.9,0-14.63,0-14.63-.54,10.01-8.17,13.86-21.25,18.92-9.76,3.78-11.63,12.8-11.95,17.14.35,11.95,3.87,22.95,22.6,22.95,16.32,0,21.02-7.76,22.24-17.21.33-2.56.15-5.16-.48-7.66"/>
              <path id="Fill-47" class="cls-3" d="m66,59c0,1.66-.67,3-1.5,3s-1.5-1.34-1.5-3c0-1.66.67-3,1.5-3s1.5,1.34,1.5,3"/>
              <path id="Fill-48" class="cls-3" d="m42,59c0,1.66.67,3,1.5,3s1.5-1.34,1.5-3-.67-3-1.5-3-1.5,1.34-1.5,3"/>
              <path id="Fill-49" class="cls-10" d="m38,55s8-2.54,12-2.31c0,0-.67-4.37-5.45-3.59-5.66.92-6.55,5.91-6.55,5.91"/>
              <path id="Fill-50" class="cls-10" d="m70,53s-8.12-1.55-12-.87c0,0,.13-4.32,4.89-4.12,5.64.24,7.11,4.99,7.11,4.99"/>
              <path id="Fill-51" class="cls-5" d="m42.58,69c-.08,0-.17-.02-.25-.06-.29-.14-.41-.49-.27-.78l1.84-3.83c.14-.29.49-.41.78-.27.29.14.41.49.27.78l-1.84,3.83c-.1.21-.31.33-.52.33"/>
              <path id="Fill-52" class="cls-5" d="m38.58,69c-.08,0-.17-.02-.25-.06-.29-.14-.41-.49-.27-.78l1.84-3.83c.14-.29.49-.41.78-.27.29.14.41.49.27.78l-1.84,3.83c-.1.21-.31.33-.53.33"/>
              <path id="Fill-53" class="cls-5" d="m66.42,69c-.22,0-.42-.12-.53-.33l-1.84-3.83c-.14-.29-.02-.64.27-.78.29-.14.64-.02.78.27l1.84,3.83c.14.29.02.64-.27.78-.08.04-.17.06-.25.06"/>
              <path id="Fill-54" class="cls-5" d="m69.42,69c-.22,0-.42-.12-.53-.33l-1.83-3.83c-.14-.29-.02-.64.27-.78.29-.14.64-.02.78.27l1.84,3.83c.14.29.02.64-.27.78-.08.04-.17.06-.25.06"/>
              <path id="Fill-55" class="cls-5" d="m57,64.88c0,1.72-1.12,3.12-2.5,3.12s-2.5-1.4-2.5-3.12,1.12-3.88,2.5-3.88,2.5,2.16,2.5,3.88"/>
              <path id="Fill-56" class="cls-5" d="m55.34,73c-6.1,0-9.89-2.74-10.09-2.89-.29-.21-.34-.6-.11-.87.23-.27.64-.32.93-.11.06.04,5.7,4.09,14.1,2.02.35-.08.72.11.81.45.09.33-.12.67-.47.76-1.86.46-3.59.64-5.16.64"/>
              <polyline id="Fill-57" class="cls-11" points="64.51 30.49 64.5 30.46 64.49 30.54 64.51 30.49"/>
              <path id="Fill-58" class="cls-6" d="m53.97,84.41c-11.69,0-17.82-3.82-20.97-9.41,2.07,7.99,7.5,14,20.96,14s19.06-5.83,21.04-13.55c-3.1,5.33-9.2,8.96-21.03,8.96"/>
            </g>
          </g>
        </g>
      </g>
    </g>
  </g>
</svg>